<mxfile host="app.diagrams.net" modified="2023-07-10T19:53:57.774Z" agent="Mozilla/5.0 (Macintosh; Intel Mac OS X 10_15_7) AppleWebKit/537.36 (KHTML, like Gecko) Chrome/114.0.0.0 Safari/537.36" etag="yMGWTSY8k8lHiUKy11aU" version="21.6.1" type="device">
  <diagram name="Page-1" id="hoF-WD3Eiy3LdpDbwYVI">
    <mxGraphModel dx="796" dy="394" grid="1" gridSize="10" guides="1" tooltips="1" connect="1" arrows="1" fold="1" page="1" pageScale="1" pageWidth="450" pageHeight="300" math="0" shadow="0">
      <root>
        <mxCell id="0" />
        <mxCell id="1" parent="0" />
        <mxCell id="WmdcZIffBxqE-tsJk4wg-2" value="" style="endArrow=classic;html=1;rounded=0;exitX=1;exitY=0.5;exitDx=0;exitDy=0;" edge="1" parent="1" source="WmdcZIffBxqE-tsJk4wg-3" target="WmdcZIffBxqE-tsJk4wg-4">
          <mxGeometry width="50" height="50" relative="1" as="geometry">
            <mxPoint x="215" y="210" as="sourcePoint" />
            <mxPoint x="275" y="200" as="targetPoint" />
          </mxGeometry>
        </mxCell>
        <mxCell id="WmdcZIffBxqE-tsJk4wg-3" value="Add chassis" style="rounded=1;whiteSpace=wrap;html=1;" vertex="1" parent="1">
          <mxGeometry x="65" y="30" width="120" height="60" as="geometry" />
        </mxCell>
        <mxCell id="WmdcZIffBxqE-tsJk4wg-4" value="Add doors" style="rounded=1;whiteSpace=wrap;html=1;" vertex="1" parent="1">
          <mxGeometry x="265" y="30" width="120" height="60" as="geometry" />
        </mxCell>
        <mxCell id="WmdcZIffBxqE-tsJk4wg-6" value="Paint job" style="rounded=1;whiteSpace=wrap;html=1;" vertex="1" parent="1">
          <mxGeometry x="265" y="111" width="120" height="60" as="geometry" />
        </mxCell>
        <mxCell id="WmdcZIffBxqE-tsJk4wg-7" value="" style="endArrow=classic;html=1;rounded=0;exitX=1;exitY=0.5;exitDx=0;exitDy=0;entryX=1;entryY=0.5;entryDx=0;entryDy=0;" edge="1" parent="1" source="WmdcZIffBxqE-tsJk4wg-4" target="WmdcZIffBxqE-tsJk4wg-6">
          <mxGeometry width="50" height="50" relative="1" as="geometry">
            <mxPoint x="255" y="250" as="sourcePoint" />
            <mxPoint x="305" y="200" as="targetPoint" />
            <Array as="points">
              <mxPoint x="425" y="60" />
              <mxPoint x="425" y="141" />
            </Array>
          </mxGeometry>
        </mxCell>
        <mxCell id="WmdcZIffBxqE-tsJk4wg-8" value="..." style="whiteSpace=wrap;html=1;rounded=1;" vertex="1" parent="1">
          <mxGeometry x="65" y="111" width="120" height="60" as="geometry" />
        </mxCell>
        <mxCell id="WmdcZIffBxqE-tsJk4wg-14" value="" style="endArrow=classic;html=1;rounded=0;entryX=1;entryY=0.5;entryDx=0;entryDy=0;exitX=0;exitY=0.5;exitDx=0;exitDy=0;" edge="1" parent="1" source="WmdcZIffBxqE-tsJk4wg-6" target="WmdcZIffBxqE-tsJk4wg-8">
          <mxGeometry width="50" height="50" relative="1" as="geometry">
            <mxPoint x="205" y="256" as="sourcePoint" />
            <mxPoint x="255" y="206" as="targetPoint" />
          </mxGeometry>
        </mxCell>
        <mxCell id="WmdcZIffBxqE-tsJk4wg-16" value="" style="endArrow=classic;html=1;rounded=0;exitX=0;exitY=0.5;exitDx=0;exitDy=0;entryX=0;entryY=0.5;entryDx=0;entryDy=0;" edge="1" parent="1" source="WmdcZIffBxqE-tsJk4wg-8" target="WmdcZIffBxqE-tsJk4wg-18">
          <mxGeometry width="50" height="50" relative="1" as="geometry">
            <mxPoint x="-15" y="136" as="sourcePoint" />
            <mxPoint x="65" y="241" as="targetPoint" />
            <Array as="points">
              <mxPoint x="25" y="141" />
              <mxPoint x="25" y="221" />
            </Array>
          </mxGeometry>
        </mxCell>
        <mxCell id="WmdcZIffBxqE-tsJk4wg-17" value="Quality check" style="rounded=1;whiteSpace=wrap;html=1;" vertex="1" parent="1">
          <mxGeometry x="265" y="191" width="120" height="60" as="geometry" />
        </mxCell>
        <mxCell id="WmdcZIffBxqE-tsJk4wg-18" value="Add wheels" style="whiteSpace=wrap;html=1;rounded=1;" vertex="1" parent="1">
          <mxGeometry x="65" y="191" width="120" height="60" as="geometry" />
        </mxCell>
        <mxCell id="WmdcZIffBxqE-tsJk4wg-19" value="" style="endArrow=classic;html=1;rounded=0;exitX=1;exitY=0.5;exitDx=0;exitDy=0;" edge="1" parent="1">
          <mxGeometry width="50" height="50" relative="1" as="geometry">
            <mxPoint x="185" y="220.69" as="sourcePoint" />
            <mxPoint x="265" y="220.69" as="targetPoint" />
          </mxGeometry>
        </mxCell>
      </root>
    </mxGraphModel>
  </diagram>
</mxfile>
